<svg width="15" height="15" viewBox="0 0 15 15" fill="none" xmlns="http://www.w3.org/2000/svg">
<path d="M5.625 0.260783C5.71651 0.371982 5.77258 0.508069 5.78595 0.65146C5.79932 0.794851 5.76938 0.938957 5.7 1.06516C5.15799 2.06029 4.87494 3.17575 4.87688 4.30891C4.87688 8.0786 7.95 11.1311 11.7375 11.1311C12.2316 11.1311 12.7125 11.0795 13.1747 10.9811C13.3164 10.9504 13.4639 10.9621 13.599 11.0148C13.7341 11.0675 13.8506 11.1588 13.9341 11.2773C14.0222 11.4006 14.0671 11.5495 14.0618 11.7009C14.0566 11.8523 14.0014 11.9977 13.905 12.1145C13.1697 13.0178 12.2421 13.7455 11.1898 14.2447C10.1376 14.7439 8.98717 15.002 7.8225 15.0002C3.50062 15.0002 0 11.5183 0 7.22828C0 3.99953 1.98188 1.23016 4.80375 0.0564078C4.94432 -0.00299986 5.10036 -0.015193 5.24845 0.02166C5.39654 0.0585129 5.52867 0.142422 5.625 0.260783V0.260783Z" fill="#C82456"/>
<path d="M10.1194 2.95125C10.1328 2.91065 10.1587 2.87532 10.1934 2.85028C10.2281 2.82524 10.2697 2.81176 10.3125 2.81176C10.3553 2.81176 10.397 2.82524 10.4316 2.85028C10.4663 2.87532 10.4922 2.91065 10.5056 2.95125L10.8684 4.04062C11.0306 4.52625 11.4113 4.90687 11.8969 5.06906L12.9863 5.43187C13.0269 5.44532 13.0622 5.47121 13.0872 5.50588C13.1123 5.54055 13.1257 5.58223 13.1257 5.625C13.1257 5.66777 13.1123 5.70945 13.0872 5.74412C13.0622 5.77878 13.0269 5.80468 12.9863 5.81812L11.8969 6.18094C11.6574 6.26073 11.4397 6.39522 11.2612 6.57373C11.0827 6.75224 10.9482 6.96987 10.8684 7.20937L10.5056 8.29875C10.4922 8.33935 10.4663 8.37468 10.4316 8.39972C10.397 8.42476 10.3553 8.43824 10.3125 8.43824C10.2697 8.43824 10.2281 8.42476 10.1934 8.39972C10.1587 8.37468 10.1328 8.33935 10.1194 8.29875L9.75657 7.20937C9.67677 6.96987 9.54229 6.75224 9.36378 6.57373C9.18527 6.39522 8.96764 6.26073 8.72813 6.18094L7.63876 5.81812C7.59816 5.80468 7.56283 5.77878 7.53779 5.74412C7.51275 5.70945 7.49927 5.66777 7.49927 5.625C7.49927 5.58223 7.51275 5.54055 7.53779 5.50588C7.56283 5.47121 7.59816 5.44532 7.63876 5.43187L8.72813 5.06906C8.96764 4.98927 9.18527 4.85478 9.36378 4.67627C9.54229 4.49776 9.67677 4.28013 9.75657 4.04062L10.1194 2.95125V2.95125ZM12.9966 0.0928125C13.0058 0.0661184 13.0232 0.0429712 13.0462 0.026589C13.0692 0.0102068 13.0968 0.00140381 13.125 0.00140381C13.1533 0.00140381 13.1808 0.0102068 13.2038 0.026589C13.2268 0.0429712 13.2442 0.0661184 13.2534 0.0928125L13.4953 0.818437C13.6031 1.14281 13.8572 1.39687 14.1816 1.50469L14.9072 1.74656C14.9339 1.75582 14.957 1.77316 14.9734 1.79618C14.9898 1.8192 14.9986 1.84675 14.9986 1.875C14.9986 1.90325 14.9898 1.9308 14.9734 1.95382C14.957 1.97684 14.9339 1.99418 14.9072 2.00344L14.1816 2.24531C14.0217 2.29849 13.8765 2.3882 13.7573 2.50733C13.6382 2.62645 13.5485 2.77171 13.4953 2.93156L13.2534 3.65719C13.2442 3.68388 13.2268 3.70703 13.2038 3.72341C13.1808 3.73979 13.1533 3.7486 13.125 3.7486C13.0968 3.7486 13.0692 3.73979 13.0462 3.72341C13.0232 3.70703 13.0058 3.68388 12.9966 3.65719L12.7547 2.93156C12.7015 2.77171 12.6118 2.62645 12.4927 2.50733C12.3736 2.3882 12.2283 2.29849 12.0684 2.24531L11.3428 2.00344C11.3161 1.99418 11.293 1.97684 11.2766 1.95382C11.2602 1.9308 11.2514 1.90325 11.2514 1.875C11.2514 1.84675 11.2602 1.8192 11.2766 1.79618C11.293 1.77316 11.3161 1.75582 11.3428 1.74656L12.0684 1.50469C12.3928 1.39687 12.6469 1.14281 12.7547 0.818437L12.9966 0.09375V0.0928125Z" fill="#10559A"/>
</svg>
