<svg width="28" height="28" viewBox="0 0 28 28" fill="none" xmlns="http://www.w3.org/2000/svg">
<path d="M13.9891 2.08634C7.22695 2.0836 1.75 7.55782 1.75 14.3145C1.75 19.6574 5.17617 24.1992 9.94766 25.8672C10.5902 26.0285 10.4918 25.5719 10.4918 25.2602V23.141C6.78125 23.5758 6.63086 21.1203 6.38203 20.7102C5.87891 19.8516 4.68945 19.6328 5.04492 19.2227C5.88984 18.7879 6.75117 19.332 7.74922 20.8059C8.47109 21.875 9.8793 21.6945 10.593 21.5168C10.7488 20.8742 11.0824 20.3 11.5418 19.8543C7.69727 19.1652 6.09492 16.8191 6.09492 14.0301C6.09492 12.6766 6.54063 11.4324 7.41562 10.4289C6.85781 8.77461 7.46758 7.35821 7.54961 7.14766C9.13828 7.00547 10.7898 8.28516 10.9184 8.38633C11.8207 8.14297 12.8516 8.01446 14.0055 8.01446C15.1648 8.01446 16.1984 8.14844 17.109 8.39454C17.418 8.15938 18.9492 7.06016 20.4258 7.19415C20.5051 7.40469 21.1012 8.78829 20.5762 10.4207C21.4621 11.427 21.9133 12.682 21.9133 14.0383C21.9133 16.8328 20.3 19.1816 16.4445 19.8598C16.7748 20.1845 17.037 20.5718 17.2158 20.9991C17.3947 21.4263 17.4867 21.8849 17.4863 22.348V25.4242C17.5082 25.6703 17.4863 25.9137 17.8965 25.9137C22.7391 24.2813 26.2254 19.7066 26.2254 14.3172C26.2254 7.55782 20.7457 2.08634 13.9891 2.08634V2.08634Z" fill="url(#paint0_linear_5_114)"/>
<defs>
<linearGradient id="paint0_linear_5_114" x1="26.2254" y1="2.08633" x2="1.75" y2="2.08633" gradientUnits="userSpaceOnUse">
<stop stop-color="#1774D1"/>
<stop offset="0.442708" stop-color="#DF4D7A"/>
</linearGradient>
</defs>
</svg>
