<svg xmlns="http://www.w3.org/2000/svg" style="display: none;">

<!-- Email -->
  <symbol id='email' viewBox="0 0 20 20">
    <path d="M14.6079 12.172C14.6079 13.012 14.8469 13.347 15.4719 13.347C16.865 13.347 17.7519 11.572 17.7519 8.62C17.7519 4.108 14.4639 1.948 10.3589 1.948C6.13595 1.948 2.29495 4.78 2.29495 10.132C2.29495 15.244 5.65495 18.028 10.8149 18.028C12.5669 18.028 13.7429 17.836 15.5419 17.236L15.9279 18.843C14.1519 19.42 12.254 19.587 10.7909 19.587C4.02295 19.587 0.397949 15.867 0.397949 10.131C0.397949 4.347 4.59895 0.411003 10.3829 0.411003C16.4069 0.411003 19.5979 4.011 19.5979 8.427C19.5979 12.171 18.423 15.027 14.7269 15.027C13.0459 15.027 11.9429 14.355 11.7989 12.866C11.3669 14.522 10.2149 15.027 8.65395 15.027C6.56595 15.027 4.81395 13.418 4.81395 10.179C4.81395 6.915 6.35095 4.899 9.11095 4.899C10.5749 4.899 11.4869 5.475 11.8929 6.387L12.5899 5.115H14.6059V12.172H14.6079ZM11.6569 9.004C11.6569 7.685 10.6719 7.132 9.85595 7.132C8.96795 7.132 7.98495 7.851 7.98495 9.964C7.98495 11.644 8.72895 12.58 9.85595 12.58C10.6479 12.58 11.6569 12.076 11.6569 10.684V9.004Z"/>
  </symbol>
<!-- Phone -->
  <symbol id='phone' viewBox="0 0 24 24">
    <path d="M20.487 17.14L16.422 13.444C16.2299 13.2693 15.9774 13.1762 15.7178 13.1842C15.4583 13.1922 15.212 13.3008 15.031 13.487L12.638 15.948C12.062 15.838 10.904 15.477 9.71204 14.288C8.52004 13.095 8.15904 11.934 8.05204 11.362L10.511 8.968C10.6975 8.78712 10.8062 8.54082 10.8142 8.2812C10.8222 8.02159 10.7289 7.76904 10.554 7.57699L6.85904 3.51299C6.68408 3.32035 6.44092 3.2035 6.18119 3.18725C5.92146 3.17101 5.66564 3.25665 5.46804 3.42599L3.29804 5.28699C3.12515 5.46051 3.02196 5.69145 3.00804 5.93599C2.99304 6.18599 2.70704 12.108 7.29904 16.702C11.305 20.707 16.323 21 17.705 21C17.907 21 18.031 20.994 18.064 20.992C18.3086 20.9783 18.5394 20.8747 18.712 20.701L20.572 18.53C20.7421 18.333 20.8283 18.0774 20.8124 17.8177C20.7966 17.558 20.6798 17.3148 20.487 17.14Z" />
  </symbol>
<!-- Facebook -->
  <symbol id='facebook' viewBox="0 0 24 24">
    <path fill-rule="evenodd" clip-rule="evenodd" d="M0 12.067C0 18.033 4.333 22.994 10 24V15.333H7V12H10V9.333C10 6.333 11.933 4.667 14.667 4.667C15.533 4.667 16.467 4.8 17.333 4.933V8H15.8C14.333 8 14 8.733 14 9.667V12H17.2L16.667 15.333H14V24C19.667 22.994 24 18.034 24 12.067C24 5.43 18.6 0 12 0C5.4 0 0 5.43 0 12.067Z" />
  </symbol>
<!-- Twitter -->
  <symbol id='twitter' viewBox="0 0 28 28">
    <path d="M14 1.75C7.23516 1.75 1.75 7.23516 1.75 14C1.75 20.7648 7.23516 26.25 14 26.25C20.7648 26.25 26.25 20.7648 26.25 14C26.25 7.23516 20.7648 1.75 14 1.75ZM19.8871 10.984C19.8953 11.1125 19.8953 11.2465 19.8953 11.3777C19.8953 15.3918 16.8383 20.0156 11.252 20.0156C9.5293 20.0156 7.93242 19.5152 6.58711 18.6539C6.8332 18.6812 7.06836 18.6922 7.31992 18.6922C8.7418 18.6922 10.0488 18.2109 11.0906 17.3961C9.75625 17.3688 8.63516 16.4938 8.25234 15.2906C8.71992 15.359 9.14102 15.359 9.62227 15.2359C8.93519 15.0963 8.31763 14.7232 7.8745 14.1799C7.43137 13.6366 7.19 12.9566 7.19141 12.2555V12.2172C7.59336 12.4441 8.06641 12.5836 8.56133 12.6027C8.14527 12.3255 7.80406 11.9498 7.56796 11.5091C7.33186 11.0683 7.20815 10.5762 7.20781 10.0762C7.20781 9.51016 7.35547 8.99336 7.6207 8.54492C8.38333 9.48373 9.33497 10.2516 10.4138 10.7985C11.4926 11.3454 12.6744 11.6592 13.8824 11.7195C13.4531 9.65508 14.9953 7.98438 16.8492 7.98438C17.7242 7.98438 18.5117 8.35078 19.0668 8.94141C19.7531 8.81289 20.4094 8.55586 20.9945 8.21133C20.7676 8.91406 20.2918 9.50742 19.6602 9.88203C20.2727 9.81641 20.8633 9.64688 21.4102 9.40898C20.9973 10.016 20.4805 10.5547 19.8871 10.984Z" fill="#FDFDFD"/>
  </symbol>
<!-- Github -->
  <symbol id='github' viewBox="0 0 28 28">
    <path d="M13.9891 2.08634C7.22695 2.0836 1.75 7.55782 1.75 14.3145C1.75 19.6574 5.17617 24.1992 9.94766 25.8672C10.5902 26.0285 10.4918 25.5719 10.4918 25.2602V23.141C6.78125 23.5758 6.63086 21.1203 6.38203 20.7102C5.87891 19.8516 4.68945 19.6328 5.04492 19.2227C5.88984 18.7879 6.75117 19.332 7.74922 20.8059C8.47109 21.875 9.8793 21.6945 10.593 21.5168C10.7488 20.8742 11.0824 20.3 11.5418 19.8543C7.69727 19.1652 6.09492 16.8191 6.09492 14.0301C6.09492 12.6766 6.54063 11.4324 7.41563 10.4289C6.85781 8.77461 7.46758 7.35821 7.54961 7.14766C9.13828 7.00547 10.7898 8.28516 10.9184 8.38633C11.8207 8.14297 12.8516 8.01446 14.0055 8.01446C15.1648 8.01446 16.1984 8.14844 17.109 8.39454C17.418 8.15938 18.9492 7.06016 20.4258 7.19415C20.5051 7.40469 21.1012 8.78829 20.5762 10.4207C21.4621 11.427 21.9133 12.682 21.9133 14.0383C21.9133 16.8328 20.3 19.1816 16.4445 19.8598C16.7748 20.1845 17.037 20.5718 17.2158 20.9991C17.3947 21.4263 17.4867 21.8849 17.4863 22.348V25.4242C17.5082 25.6703 17.4863 25.9137 17.8965 25.9137C22.7391 24.2812 26.2254 19.7066 26.2254 14.3172C26.2254 7.55782 20.7457 2.08634 13.9891 2.08634Z" fill="#FDFDFD"/>
  </symbol>
<!-- Instagram -->
  <symbol id='instagram' viewBox="0 0 28 28">
    <path d="M13.9999 10.3551C11.9929 10.3551 10.355 11.993 10.355 14C10.355 16.007 11.9929 17.6449 13.9999 17.6449C16.0069 17.6449 17.6448 16.007 17.6448 14C17.6448 11.993 16.0069 10.3551 13.9999 10.3551ZM24.9319 14C24.9319 12.4906 24.9456 10.9949 24.8608 9.48827C24.7761 7.73828 24.3768 6.18515 23.0971 4.90546C21.8147 3.62304 20.2643 3.22656 18.5143 3.14179C17.005 3.05703 15.5093 3.0707 14.0026 3.0707C12.4932 3.0707 10.9975 3.05703 9.4909 3.14179C7.7409 3.22656 6.18778 3.62578 4.90809 4.90546C3.62567 6.18789 3.22918 7.73828 3.14442 9.48827C3.05965 10.9976 3.07332 12.4934 3.07332 14C3.07332 15.5066 3.05965 17.0051 3.14442 18.5117C3.22918 20.2617 3.6284 21.8148 4.90809 23.0945C6.19051 24.3769 7.7409 24.7734 9.4909 24.8582C11.0003 24.943 12.496 24.9293 14.0026 24.9293C15.512 24.9293 17.0077 24.943 18.5143 24.8582C20.2643 24.7734 21.8175 24.3742 23.0971 23.0945C24.3796 21.8121 24.7761 20.2617 24.8608 18.5117C24.9483 17.0051 24.9319 15.5094 24.9319 14ZM13.9999 19.6082C10.8964 19.6082 8.39168 17.1035 8.39168 14C8.39168 10.8965 10.8964 8.39179 13.9999 8.39179C17.1034 8.39179 19.6081 10.8965 19.6081 14C19.6081 17.1035 17.1034 19.6082 13.9999 19.6082ZM19.8378 9.47187C19.1132 9.47187 18.528 8.88671 18.528 8.1621C18.528 7.43749 19.1132 6.85234 19.8378 6.85234C20.5624 6.85234 21.1475 7.43749 21.1475 8.1621C21.1478 8.33416 21.114 8.50458 21.0483 8.66358C20.9825 8.82259 20.8861 8.96706 20.7644 9.08873C20.6427 9.21039 20.4983 9.30686 20.3393 9.37261C20.1803 9.43835 20.0098 9.47208 19.8378 9.47187Z" fill="#FDFDFD"/>
  </symbol>

</svg>