<svg width="28" height="28" viewBox="0 0 28 28" fill="none" xmlns="http://www.w3.org/2000/svg">
<path d="M13.9999 10.3551C11.9929 10.3551 10.355 11.993 10.355 14C10.355 16.007 11.9929 17.6449 13.9999 17.6449C16.0069 17.6449 17.6448 16.007 17.6448 14C17.6448 11.993 16.0069 10.3551 13.9999 10.3551ZM24.9319 14C24.9319 12.4906 24.9456 10.9949 24.8608 9.48827C24.7761 7.73828 24.3768 6.18515 23.0971 4.90546C21.8147 3.62304 20.2643 3.22656 18.5143 3.14179C17.005 3.05703 15.5093 3.0707 14.0026 3.0707C12.4932 3.0707 10.9975 3.05703 9.4909 3.14179C7.7409 3.22656 6.18778 3.62578 4.90809 4.90546C3.62567 6.18789 3.22918 7.73828 3.14442 9.48827C3.05965 10.9976 3.07332 12.4934 3.07332 14C3.07332 15.5066 3.05965 17.0051 3.14442 18.5117C3.22918 20.2617 3.6284 21.8148 4.90809 23.0945C6.19051 24.3769 7.7409 24.7734 9.4909 24.8582C11.0003 24.943 12.496 24.9293 14.0026 24.9293C15.512 24.9293 17.0077 24.943 18.5143 24.8582C20.2643 24.7734 21.8175 24.3742 23.0971 23.0945C24.3796 21.8121 24.7761 20.2617 24.8608 18.5117C24.9483 17.0051 24.9319 15.5094 24.9319 14V14ZM13.9999 19.6082C10.8964 19.6082 8.39168 17.1035 8.39168 14C8.39168 10.8965 10.8964 8.39179 13.9999 8.39179C17.1034 8.39179 19.6081 10.8965 19.6081 14C19.6081 17.1035 17.1034 19.6082 13.9999 19.6082ZM19.8378 9.47187C19.1132 9.47187 18.528 8.88671 18.528 8.1621C18.528 7.43749 19.1132 6.85234 19.8378 6.85234C20.5624 6.85234 21.1475 7.43749 21.1475 8.1621C21.1478 8.33416 21.114 8.50458 21.0483 8.66358C20.9825 8.82259 20.8861 8.96706 20.7644 9.08873C20.6427 9.21039 20.4983 9.30686 20.3393 9.37261C20.1803 9.43835 20.0098 9.47208 19.8378 9.47187V9.47187Z" fill="url(#paint0_linear_5_111)"/>
<defs>
<linearGradient id="paint0_linear_5_111" x1="24.9331" y1="3.06989" x2="3.07251" y2="3.06989" gradientUnits="userSpaceOnUse">
<stop stop-color="#1774D1"/>
<stop offset="0.442708" stop-color="#DF4D7A"/>
</linearGradient>
</defs>
</svg>
