<svg width="20" height="20" viewBox="0 0 20 20" fill="none" xmlns="http://www.w3.org/2000/svg">
<path d="M9.99989 3.56667C10.1472 3.56667 10.2885 3.50813 10.3927 3.40395C10.4969 3.29976 10.5554 3.15845 10.5554 3.01111V1.06111C10.5554 0.913767 10.4969 0.77246 10.3927 0.668273C10.2885 0.564086 10.1472 0.505554 9.99989 0.505554C9.85255 0.505554 9.71124 0.564086 9.60705 0.668273C9.50287 0.77246 9.44434 0.913767 9.44434 1.06111V3.01111C9.44434 3.15845 9.50287 3.29976 9.60705 3.40395C9.71124 3.50813 9.85255 3.56667 9.99989 3.56667Z" fill="#1774D1"/>
<path d="M9.99989 16.4333C9.85255 16.4333 9.71124 16.4919 9.60705 16.5961C9.50287 16.7003 9.44434 16.8416 9.44434 16.9889V18.9389C9.44434 19.0862 9.50287 19.2276 9.60705 19.3317C9.71124 19.4359 9.85255 19.4945 9.99989 19.4945C10.1472 19.4945 10.2885 19.4359 10.3927 19.3317C10.4969 19.2276 10.5554 19.0862 10.5554 18.9389V16.9889C10.5554 16.8416 10.4969 16.7003 10.3927 16.5961C10.2885 16.4919 10.1472 16.4333 9.99989 16.4333Z" fill="#1774D1"/>
<path d="M4.66664 5.44997C4.77292 5.54099 4.90963 5.58855 5.04945 5.58314C5.18927 5.57774 5.3219 5.51978 5.42084 5.42084C5.51978 5.3219 5.57774 5.18927 5.58314 5.04945C5.58855 4.90963 5.54099 4.77292 5.44997 4.66664L4.07219 3.28886C3.96592 3.19785 3.82921 3.15029 3.68939 3.15569C3.54957 3.16109 3.41693 3.21905 3.31799 3.31799C3.21905 3.41693 3.16109 3.54957 3.15569 3.68939C3.15029 3.82921 3.19785 3.96592 3.28886 4.07219L4.66664 5.44997Z" fill="#1774D1"/>
<path d="M15.3334 14.55C15.2271 14.459 15.0904 14.4115 14.9506 14.4169C14.8108 14.4223 14.6782 14.4802 14.5792 14.5792C14.4803 14.6781 14.4223 14.8107 14.4169 14.9506C14.4115 15.0904 14.4591 15.2271 14.5501 15.3334L15.9279 16.7111C16.0341 16.8022 16.1709 16.8497 16.3107 16.8443C16.4505 16.8389 16.5831 16.7809 16.6821 16.682C16.781 16.5831 16.839 16.4504 16.8444 16.3106C16.8498 16.1708 16.8022 16.0341 16.7112 15.9278L15.3334 14.55Z" fill="#1774D1"/>
<path d="M3.56673 10C3.56673 9.85267 3.50819 9.71136 3.40401 9.60718C3.29982 9.50299 3.15851 9.44446 3.01117 9.44446H1.06117C0.913828 9.44446 0.772521 9.50299 0.668334 9.60718C0.564147 9.71136 0.505615 9.85267 0.505615 10C0.505615 10.1474 0.564147 10.2887 0.668334 10.3929C0.772521 10.497 0.913828 10.5556 1.06117 10.5556H3.01117C3.15851 10.5556 3.29982 10.497 3.40401 10.3929C3.50819 10.2887 3.56673 10.1474 3.56673 10Z" fill="#1774D1"/>
<path d="M18.9389 9.44446H16.9889C16.8416 9.44446 16.7003 9.50299 16.5961 9.60718C16.4919 9.71136 16.4333 9.85267 16.4333 10C16.4333 10.1474 16.4919 10.2887 16.5961 10.3929C16.7003 10.497 16.8416 10.5556 16.9889 10.5556H18.9389C19.0862 10.5556 19.2276 10.497 19.3317 10.3929C19.4359 10.2887 19.4945 10.1474 19.4945 10C19.4945 9.85267 19.4359 9.71136 19.3317 9.60718C19.2276 9.50299 19.0862 9.44446 18.9389 9.44446Z" fill="#1774D1"/>
<path d="M4.66664 14.55L3.28886 15.9278C3.19785 16.0341 3.15029 16.1708 3.15569 16.3106C3.16109 16.4504 3.21905 16.5831 3.31799 16.682C3.41693 16.7809 3.54957 16.8389 3.68939 16.8443C3.82921 16.8497 3.96592 16.8022 4.07219 16.7111L5.44997 15.3334C5.54099 15.2271 5.58855 15.0904 5.58314 14.9506C5.57774 14.8107 5.51978 14.6781 5.42084 14.5792C5.3219 14.4802 5.18927 14.4223 5.04945 14.4169C4.90963 14.4115 4.77292 14.459 4.66664 14.55Z" fill="#1774D1"/>
<path d="M15.3334 5.44997L16.7112 4.07219C16.8022 3.96592 16.8498 3.82921 16.8444 3.68939C16.839 3.54957 16.781 3.41693 16.6821 3.31799C16.5831 3.21905 16.4505 3.16109 16.3107 3.15569C16.1709 3.15029 16.0341 3.19785 15.9279 3.28886L14.5501 4.66664C14.4591 4.77292 14.4115 4.90963 14.4169 5.04945C14.4223 5.18927 14.4803 5.3219 14.5792 5.42084C14.6782 5.51978 14.8108 5.57774 14.9506 5.58314C15.0904 5.58855 15.2271 5.54099 15.3334 5.44997Z" fill="#1774D1"/>
<path d="M9.99989 15.5556C13.0681 15.5556 15.5554 13.0683 15.5554 10C15.5554 6.93176 13.0681 4.44446 9.99989 4.44446C6.93164 4.44446 4.44434 6.93176 4.44434 10C4.44434 13.0683 6.93164 15.5556 9.99989 15.5556Z" fill="#C82456"/>
</svg>
