<svg width="121" height="19" viewBox="0 0 121 19" fill="none" xmlns="http://www.w3.org/2000/svg">
<path d="M5.18182 18.2472C4.34659 18.2472 3.60227 18.1023 2.94886 17.8125C2.29545 17.517 1.77841 17.0824 1.39773 16.5085C1.02273 15.929 0.835227 15.2074 0.835227 14.3438C0.835227 13.6165 0.96875 13.0057 1.2358 12.5114C1.50284 12.017 1.86648 11.6193 2.3267 11.3182C2.78693 11.017 3.30966 10.7898 3.89489 10.6364C4.4858 10.483 5.10511 10.375 5.75284 10.3125C6.5142 10.233 7.12784 10.1591 7.59375 10.0909C8.05966 10.017 8.39773 9.90909 8.60795 9.76705C8.81818 9.625 8.9233 9.41477 8.9233 9.13636V9.08523C8.9233 8.54545 8.75284 8.12784 8.41193 7.83239C8.0767 7.53693 7.59943 7.3892 6.98011 7.3892C6.3267 7.3892 5.80682 7.53409 5.42045 7.82386C5.03409 8.10795 4.77841 8.46591 4.65341 8.89773L1.29545 8.625C1.46591 7.82955 1.80114 7.14205 2.30114 6.5625C2.80114 5.97727 3.44602 5.52841 4.2358 5.21591C5.03125 4.89773 5.9517 4.73864 6.99716 4.73864C7.72443 4.73864 8.42045 4.82386 9.08523 4.99432C9.75568 5.16477 10.3494 5.42898 10.8665 5.78693C11.3892 6.14489 11.8011 6.60511 12.1023 7.16761C12.4034 7.72443 12.554 8.39205 12.554 9.17045V18H9.1108V16.1847H9.00852C8.7983 16.5938 8.51705 16.9545 8.16477 17.267C7.8125 17.5739 7.3892 17.8153 6.89489 17.9915C6.40057 18.1619 5.82955 18.2472 5.18182 18.2472ZM6.22159 15.7415C6.75568 15.7415 7.22727 15.6364 7.63636 15.4261C8.04545 15.2102 8.36648 14.9205 8.59943 14.5568C8.83239 14.1932 8.94886 13.7812 8.94886 13.321V11.9318C8.83523 12.0057 8.67898 12.0739 8.48011 12.1364C8.28693 12.1932 8.06818 12.2472 7.82386 12.2983C7.57955 12.3437 7.33523 12.3864 7.09091 12.4261C6.84659 12.4602 6.625 12.4915 6.42614 12.5199C6 12.5824 5.62784 12.6818 5.30966 12.8182C4.99148 12.9545 4.74432 13.1392 4.56818 13.3722C4.39205 13.5994 4.30398 13.8835 4.30398 14.2244C4.30398 14.7188 4.48295 15.0966 4.84091 15.358C5.20455 15.6136 5.66477 15.7415 6.22159 15.7415ZM19.0014 0.545454V18H15.3707V0.545454H19.0014ZM25.5405 0.545454V18H21.9098V0.545454H25.5405ZM34.4148 18.2557C33.0682 18.2557 31.9091 17.983 30.9375 17.4375C29.9716 16.8864 29.2273 16.108 28.7045 15.1023C28.1818 14.0909 27.9205 12.8949 27.9205 11.5142C27.9205 10.1676 28.1818 8.9858 28.7045 7.96875C29.2273 6.9517 29.9631 6.15909 30.9119 5.59091C31.8665 5.02273 32.9858 4.73864 34.2699 4.73864C35.1335 4.73864 35.9375 4.87784 36.6818 5.15625C37.4318 5.42898 38.0852 5.84091 38.642 6.39205C39.2045 6.94318 39.642 7.63636 39.9545 8.47159C40.267 9.30114 40.4233 10.2727 40.4233 11.3864V12.3835H29.3693V10.1335H37.0057C37.0057 9.6108 36.892 9.14773 36.6648 8.74432C36.4375 8.34091 36.1222 8.02557 35.7188 7.7983C35.321 7.56534 34.858 7.44886 34.3295 7.44886C33.7784 7.44886 33.2898 7.5767 32.8636 7.83239C32.4432 8.08239 32.1136 8.42045 31.875 8.84659C31.6364 9.26705 31.5142 9.7358 31.5085 10.2528V12.392C31.5085 13.0398 31.6278 13.5994 31.8665 14.071C32.1108 14.5426 32.4545 14.9062 32.8977 15.1619C33.3409 15.4176 33.8665 15.5455 34.4744 15.5455C34.8778 15.5455 35.2472 15.4886 35.5824 15.375C35.9176 15.2614 36.2045 15.0909 36.4432 14.8636C36.6818 14.6364 36.8636 14.358 36.9886 14.0284L40.3466 14.25C40.1761 15.0568 39.8267 15.7614 39.2983 16.3636C38.7756 16.9602 38.0994 17.4261 37.2699 17.7614C36.446 18.0909 35.4943 18.2557 34.4148 18.2557ZM46.4233 10.4318V18H42.7926V4.90909H46.2528V7.21875H46.4062C46.696 6.45739 47.1818 5.85511 47.8636 5.41193C48.5455 4.96307 49.3722 4.73864 50.3438 4.73864C51.2528 4.73864 52.0455 4.9375 52.7216 5.33523C53.3977 5.73295 53.9233 6.30114 54.2983 7.03977C54.6733 7.77273 54.8608 8.64773 54.8608 9.66477V18H51.2301V10.3125C51.2358 9.51136 51.0313 8.88636 50.6165 8.4375C50.2017 7.98295 49.6307 7.75568 48.9034 7.75568C48.4148 7.75568 47.983 7.8608 47.608 8.07102C47.2386 8.28125 46.9489 8.58807 46.7386 8.99148C46.5341 9.3892 46.429 9.86932 46.4233 10.4318ZM60.3047 18L56.7422 4.90909H60.4155L62.4439 13.7045H62.5632L64.6768 4.90909H68.282L70.4297 13.6534H70.5405L72.5348 4.90909H76.1996L72.6456 18H68.8018L66.5518 9.76705H66.3899L64.1399 18H60.3047ZM81.767 10.4318V18H78.1364V0.545454H81.6648V7.21875H81.8182C82.1136 6.44602 82.5909 5.84091 83.25 5.40341C83.9091 4.96023 84.7358 4.73864 85.7301 4.73864C86.6392 4.73864 87.4318 4.9375 88.108 5.33523C88.7898 5.72727 89.3182 6.29261 89.6932 7.03125C90.0739 7.7642 90.2614 8.64205 90.2557 9.66477V18H86.625V10.3125C86.6307 9.50568 86.4261 8.87784 86.0114 8.42898C85.6023 7.98011 85.0284 7.75568 84.2898 7.75568C83.7955 7.75568 83.358 7.8608 82.9773 8.07102C82.6023 8.28125 82.3068 8.58807 82.0909 8.99148C81.8807 9.3892 81.7727 9.86932 81.767 10.4318ZM101.508 12.4261V4.90909H105.138V18H101.653V15.6222H101.516C101.221 16.3892 100.729 17.0057 100.042 17.4716C99.3601 17.9375 98.5277 18.1705 97.5447 18.1705C96.6697 18.1705 95.8999 17.9716 95.2351 17.5739C94.5703 17.1761 94.0504 16.6108 93.6754 15.8778C93.3061 15.1449 93.1186 14.267 93.1129 13.2443V4.90909H96.7436V12.5966C96.7493 13.3693 96.9567 13.9801 97.3658 14.429C97.7749 14.8778 98.3232 15.1023 99.0107 15.1023C99.4482 15.1023 99.8572 15.0028 100.238 14.804C100.619 14.5994 100.925 14.2983 101.158 13.9006C101.397 13.5028 101.513 13.0114 101.508 12.4261ZM111.673 10.4318V18H108.043V4.90909H111.503V7.21875H111.656C111.946 6.45739 112.432 5.85511 113.114 5.41193C113.795 4.96307 114.622 4.73864 115.594 4.73864C116.503 4.73864 117.295 4.9375 117.972 5.33523C118.648 5.73295 119.173 6.30114 119.548 7.03977C119.923 7.77273 120.111 8.64773 120.111 9.66477V18H116.48V10.3125C116.486 9.51136 116.281 8.88636 115.866 8.4375C115.452 7.98295 114.881 7.75568 114.153 7.75568C113.665 7.75568 113.233 7.8608 112.858 8.07102C112.489 8.28125 112.199 8.58807 111.989 8.99148C111.784 9.3892 111.679 9.86932 111.673 10.4318Z" fill="url(#paint0_linear_4_6)"/>
<defs>
<linearGradient id="paint0_linear_4_6" x1="122" y1="-5" x2="0" y2="-5" gradientUnits="userSpaceOnUse">
<stop stop-color="#1774D1"/>
<stop offset="0.442708" stop-color="#DF4D7A"/>
</linearGradient>
</defs>
</svg>
