<svg width="69" height="103" viewBox="0 0 69 103" fill="none" xmlns="http://www.w3.org/2000/svg">
<g clip-path="url(#clip0_31_97)">
<path d="M17.2881 103.014C26.8082 103.014 34.5346 95.3231 34.5346 85.8471V68.6804H17.2881C7.76796 68.6804 0.0415039 76.3711 0.0415039 85.8471C0.0415039 95.3231 7.76796 103.014 17.2881 103.014Z" fill="#0ACF83"/>
<path d="M0.00683594 51.5C0.00683594 42.024 7.73329 34.3334 17.2534 34.3334H34.4999V68.6667H17.2534C7.73329 68.6667 0.00683594 60.976 0.00683594 51.5Z" fill="#A259FF"/>
<path d="M0.00708008 17.1667C0.00708008 7.69066 7.73354 0 17.2536 0H34.5002V34.3333H17.2536C7.73354 34.3333 0.00708008 26.6427 0.00708008 17.1667Z" fill="#F24E1E"/>
<path d="M34.5 0H51.7466C61.2667 0 68.9931 7.69066 68.9931 17.1667C68.9931 26.6427 61.2667 34.3333 51.7466 34.3333H34.5V0Z" fill="#FF7262"/>
<path d="M68.9931 51.5C68.9931 60.976 61.2667 68.6667 51.7466 68.6667C42.2265 68.6667 34.5 60.976 34.5 51.5C34.5 42.024 42.2265 34.3334 51.7466 34.3334C61.2667 34.3334 68.9931 42.024 68.9931 51.5Z" fill="#1ABCFE"/>
</g>
<defs>
<clipPath id="clip0_31_97">
<rect width="69" height="103" fill="white"/>
</clipPath>
</defs>
</svg>
