<svg width="112" height="112" viewBox="0 0 112 112" fill="none" xmlns="http://www.w3.org/2000/svg">
<path d="M0 0H112V112H0V0Z" fill="#017ACB"/>
<path d="M58.1775 48.6825H63.55V57.9575H49.025V99.2225L48.64 99.3275C48.115 99.4675 41.2025 99.4675 39.715 99.31L38.525 99.205V57.9575H24V48.6825L28.6025 48.63C31.1225 48.595 37.5975 48.595 42.9875 48.63C48.3775 48.665 55.2025 48.6825 58.1775 48.6825V48.6825ZM99.18 94.8475C97.045 97.105 94.7525 98.365 90.9375 99.3975C89.275 99.8525 88.995 99.87 85.25 99.8525C81.505 99.835 81.2075 99.835 79.3875 99.3625C74.68 98.155 70.8825 95.7925 68.2925 92.45C67.5575 91.505 66.35 89.545 66.35 89.3C66.35 89.23 66.525 89.0725 66.7525 88.9675C66.98 88.8625 67.4525 88.565 67.8375 88.3375C68.2225 88.11 68.9225 87.69 69.395 87.445C69.8675 87.2 71.2325 86.395 72.4225 85.6775C73.6125 84.96 74.6975 84.3825 74.82 84.3825C74.9425 84.3825 75.17 84.6275 75.345 84.925C76.395 86.6925 78.845 88.95 80.5775 89.72C81.645 90.175 84.0075 90.6825 85.145 90.6825C86.195 90.6825 88.12 90.2275 89.1525 89.755C90.255 89.2475 90.815 88.74 91.48 87.725C91.935 87.0075 91.9875 86.815 91.97 85.45C91.97 84.19 91.9 83.84 91.55 83.2625C90.57 81.6525 89.24 80.8125 83.85 78.4325C78.285 75.965 75.7825 74.495 73.7525 72.5175C72.2475 71.0475 71.95 70.645 71.005 68.8075C69.78 66.445 69.6225 65.675 69.605 62.1575C69.5875 59.69 69.64 58.885 69.9025 58.045C70.27 56.785 71.46 54.3525 72.0025 53.74C73.1225 52.4275 73.525 52.025 74.3125 51.3775C76.6925 49.4175 80.4025 48.1225 83.955 48C84.3575 48 85.6875 48.07 86.93 48.1575C90.5 48.455 92.9325 49.33 95.2775 51.2025C97.045 52.6025 99.7225 55.8925 99.46 56.33C99.285 56.5925 92.3025 61.2475 91.8475 61.3875C91.5675 61.475 91.375 61.37 90.99 60.915C88.61 58.0625 87.6475 57.45 85.3375 57.31C83.6925 57.205 82.8175 57.3975 81.715 58.1325C80.56 58.9025 80 60.075 80 61.7025C80.0175 64.0825 80.9275 65.2025 84.2875 66.865C86.4575 67.9325 88.3125 68.8075 88.4525 68.8075C88.6625 68.8075 93.16 71.0475 94.3325 71.7475C99.7925 74.95 102.015 78.24 102.593 83.91C103.013 88.18 101.805 92.0825 99.18 94.8475V94.8475Z" fill="white"/>
</svg>
